<svg xmlns="http://www.w3.org/2000/svg" width="300" height="300" viewBox="0 0 300 300">
  <rect width="300" height="300" fill="#F2EDE4" rx="16"/>
  <g transform="translate(30,30)">
    <rect x="0" y="0" width="240" height="240" fill="#2B2118" rx="8"/>
    <g fill="#F2EDE4">
      <rect x="20" y="20" width="40" height="40" rx="4"/>
      <rect x="72" y="20" width="40" height="40" rx="4"/>
      <rect x="124" y="20" width="40" height="40" rx="4"/>
      <rect x="20" y="72" width="40" height="40" rx="4"/>
      <rect x="72" y="72" width="14" height="14" rx="2"/>
      <rect x="98" y="72" width="14" height="14" rx="2"/>
      <rect x="124" y="72" width="40" height="40" rx="4"/>
      <rect x="20" y="124" width="40" height="40" rx="4"/>
      <rect x="72" y="124" width="14" height="14" rx="2"/>
      <rect x="98" y="124" width="14" height="14" rx="2"/>
      <rect x="176" y="20" width="40" height="40" rx="4"/>
      <rect x="176" y="72" width="14" height="14" rx="2"/>
      <rect x="20" y="176" width="40" height="40" rx="4"/>
      <rect x="124" y="176" width="40" height="40" rx="4"/>
      <rect x="176" y="176" width="40" height="40" rx="4"/>
      <rect x="72" y="176" width="14" height="14" rx="2"/>
      <rect x="176" y="124" width="14" height="14" rx="2"/>
      <rect x="98" y="176" width="14" height="14" rx="2"/>
      <rect x="124" y="124" width="14" height="14" rx="2"/>
      <rect x="150" y="124" width="14" height="14" rx="2"/>
      <rect x="124" y="150" width="14" height="14" rx="2"/>
      <rect x="150" y="150" width="14" height="14" rx="2"/>
    </g>
  </g>
  <text x="150" y="270" text-anchor="middle" font-size="11" font-family="sans-serif" fill="#2B2118">Escaneá para ver el menú</text>
</svg>
